<?xml version="1.0" encoding="UTF-8"?>
<svg id="Capa_2" data-name="Capa 2" xmlns="http://www.w3.org/2000/svg" viewBox="0 0 83.37 35.08">
  <defs>
    <style>
      .cls-1 {
        fill: #fff;
      }

      .cls-2 {
        fill: #f9f7d7;
      }
    </style>
  </defs>
  <g id="Capa_1-2" data-name="Capa 1">
    <g>
      <path class="cls-2" d="M8.35,9.67H3.41v4.47h5.54l-.34,2.37H.69V1.13h7.89v2.41H3.41v3.74h4.94v2.39Z"/>
      <path class="cls-2" d="M10.44,16.51V.36h2.72v16.15h-2.72Z"/>
      <path class="cls-2" d="M27.6,12.52c-.05.95-.26,4.19-4.14,4.19-3.38,0-4.21-2.7-4.21-6.19,0-3.12,1.03-6.01,4.35-6.01,3.86,0,3.98,3.33,4,4.05h-2.74c-.02-.46-.07-1.8-1.28-1.8s-1.59,1.34-1.59,3.78.38,3.92,1.55,3.92c1.27,0,1.37-1.27,1.44-1.94h2.62Z"/>
      <path class="cls-2" d="M37.77,10.53c0,4.27-1.57,6.21-4.46,6.21s-4.38-1.85-4.38-6.15,1.75-6.05,4.53-6.05,4.32,2.05,4.32,5.99ZM31.67,10.57c0,2.53.42,3.89,1.72,3.89,1.22,0,1.64-1.35,1.64-3.86s-.43-3.78-1.66-3.78-1.7,1.22-1.7,3.74Z"/>
      <path class="cls-2" d="M39.62,8.73c0-1.93,0-3.15-.02-3.99h2.59c.02.2.07.69.07,1.94.44-1.33,1.48-2.13,3.08-2.14v3.04c-1.92-.04-3,.52-3,2.75v6.18h-2.72v-7.78Z"/>
      <path class="cls-2" d="M54.26,13.95c0,.58.05,2.03.09,2.56h-2.47c-.05-.23-.11-.75-.11-1.09-.45.75-1.22,1.3-2.65,1.3-2.26,0-3.13-1.8-3.13-3.49,0-2.41,1.65-3.87,4.64-3.87.4,0,.7,0,.96.03v-1.28c0-.69-.09-1.49-1.27-1.49s-1.26.74-1.33,1.52h-2.58c.05-1.73.86-3.58,4.01-3.58,2.53,0,3.84,1.15,3.84,3.39v6.01ZM51.65,11.35c-.28-.05-.52-.05-.88-.05-1.55,0-2.11.72-2.11,1.68,0,.72.34,1.53,1.35,1.53,1.39,0,1.64-1.04,1.64-2.78v-.38Z"/>
      <path class="cls-2" d="M55.72,14.56c1.22-1.91,3.11-5.01,4.62-7.53h-4.3v-2.29h7.35v2.04c-1.02,1.71-3.17,5.29-4.52,7.46h4.61l-.28,2.27h-7.48v-1.95Z"/>
      <path class="cls-2" d="M73.23,10.53c0,4.27-1.57,6.21-4.46,6.21s-4.38-1.85-4.38-6.15,1.75-6.05,4.53-6.05,4.32,2.05,4.32,5.99ZM67.13,10.57c0,2.53.42,3.89,1.72,3.89,1.22,0,1.64-1.35,1.64-3.86s-.43-3.78-1.66-3.78-1.7,1.22-1.7,3.74ZM72.69,0l-2.97,3.11h-2.31l2.14-3.11h3.14Z"/>
      <path class="cls-2" d="M75.08,8.4c0-2.42,0-3.04-.02-3.66h2.61c.04.29.09.78.09,1.22.35-.65,1.07-1.45,2.6-1.45,1.92,0,3.01,1.21,3.01,3.6v8.39h-2.72v-7.78c0-1.17-.23-1.88-1.33-1.88-1.03,0-1.52.58-1.52,2.37v7.29h-2.72v-8.11Z"/>
      <path class="cls-2" d="M8.76,18.71v12.88c0,1.39,0,2.59.02,3.27h-2.61c-.04-.3-.09-.9-.09-1.25-.34.83-1.05,1.46-2.61,1.46-2.48,0-3.47-2.23-3.47-6.19,0-3.61,1.18-5.99,3.92-5.99,1.28,0,1.88.47,2.12.93v-5.11h2.72ZM2.76,28.92c0,2.73.49,3.85,1.64,3.85,1.41,0,1.72-1.1,1.72-3.94s-.22-3.63-1.6-3.63c-1.11,0-1.76.83-1.76,3.72Z"/>
      <path class="cls-2" d="M13.29,29.68c0,1.49.18,3.16,1.69,3.16,1.35,0,1.53-1.15,1.58-1.55h2.6c-.04.37-.31,3.8-4.21,3.8s-4.35-3.21-4.35-6.18c0-3.73,1.42-6.01,4.4-6.01,3.41,0,4.25,2.56,4.25,5.63,0,.41-.02.96-.04,1.17h-5.91ZM16.56,27.72c0-1.15-.13-2.6-1.58-2.6-1.56,0-1.65,1.75-1.66,2.6h3.23Z"/>
      <path class="cls-1" d="M37.48,30.25c0,.06-.01.13-.04.21-.03.08-.06.15-.09.22s-.07.14-.1.19-.06.09-.07.1c-.55.41-1.18.84-1.88,1.29-.7.45-1.43.87-2.2,1.25-.77.38-1.57.7-2.39.94-.82.25-1.63.37-2.44.37-.1,0-.22-.01-.38-.03-.16-.02-.33-.06-.53-.12-.2-.06-.4-.14-.62-.24-.22-.1-.44-.24-.66-.4-.11-.07-.23-.18-.34-.31-.12-.13-.23-.27-.33-.42-.1-.15-.18-.29-.25-.44-.07-.14-.1-.27-.1-.38,0-.44.02-.87.07-1.29.05-.41.12-.83.23-1.25.05-.25.17-.59.34-1.03.17-.43.41-.9.69-1.39.29-.49.63-.98,1.03-1.47.4-.49.84-.91,1.33-1.28.5-.37.98-.64,1.43-.82.45-.18.86-.27,1.22-.27.16,0,.34.08.53.23.19.15.37.34.53.58.16.23.29.49.4.77.11.28.16.55.16.81,0,.15-.06.34-.18.57s-.27.46-.45.68-.38.41-.59.57-.41.24-.6.24c-.08,0-.16-.02-.22-.05s-.1-.1-.1-.21c0-.11.04-.25.12-.43.08-.17.17-.35.27-.54.1-.19.19-.37.27-.56.08-.18.12-.34.12-.47,0-.06,0-.12-.03-.19-.02-.07-.05-.14-.09-.2-.04-.06-.1-.11-.17-.16s-.16-.06-.27-.06c-.2,0-.38.02-.55.07-.17.04-.33.12-.5.23-.17.11-.36.25-.57.44-.21.19-.45.42-.72.7-.24.25-.47.55-.7.9-.23.35-.44.74-.63,1.15-.19.42-.34.86-.46,1.32-.11.46-.17.93-.17,1.39,0,.28.05.53.16.75.11.22.24.41.41.56.17.16.35.27.57.36.21.08.42.12.64.12.47,0,.95-.05,1.46-.16.51-.11,1.02-.25,1.54-.43.52-.18,1.03-.38,1.54-.62.51-.23.99-.48,1.45-.73s.88-.51,1.28-.76c.39-.26.73-.49,1.02-.72.04-.04.1-.09.19-.15.09-.06.15-.08.17-.08.08,0,.14.07.19.21.04.14.07.28.07.42Z"/>
      <path class="cls-1" d="M50.58,27.2c0,.11-.08.31-.24.59-.38.55-.82,1.11-1.29,1.66-.48.56-.98,1.08-1.52,1.58-.54.5-1.09.97-1.68,1.4-.58.43-1.17.81-1.76,1.12-.59.31-1.18.56-1.77.73-.59.17-1.16.25-1.7.24-1.18,0-2.1-.34-2.76-1.03-.65-.69-.98-1.73-.98-3.12,0-1.16.18-2.29.54-3.39.36-1.09.97-2.15,1.84-3.16.16-.18.35-.35.55-.51s.42-.31.64-.43c.23-.13.46-.23.7-.3.24-.07.48-.12.73-.13.06,0,.14,0,.24.02.1.02.21.04.33.08.12.04.23.08.34.14.11.06.2.12.27.21.21.24.37.48.49.73.12.25.19.53.21.83.01.34-.02.68-.12,1-.09.33-.25.67-.47,1.01-.22.34-.5.7-.86,1.07-.35.37-.78.76-1.29,1.18-.32.27-.67.56-1.06.88-.39.32-.86.66-1.4,1.02,0,.72.22,1.26.65,1.64s1.03.56,1.78.56c.42,0,.85-.06,1.28-.17.43-.11.85-.26,1.26-.44.42-.18.82-.39,1.21-.62.39-.23.75-.47,1.09-.72.63-.46,1.2-.92,1.71-1.37s1.02-.93,1.52-1.44l.6-.6c.36-.32.62-.48.79-.48.09,0,.13.07.13.21ZM42.1,24.99c0-.11-.02-.22-.05-.33-.03-.11-.06-.2-.12-.28s-.11-.15-.18-.19c-.07-.05-.14-.07-.23-.07-.39.02-.78.26-1.18.72-.39.46-.76,1.06-1.11,1.8-.08.16-.15.35-.22.55-.06.2-.12.41-.18.62s-.1.42-.14.63c-.04.21-.08.39-.11.56.38-.29.74-.56,1.07-.8s.63-.5.91-.75c.18-.16.36-.34.54-.53.18-.19.35-.39.5-.59s.27-.42.36-.64c.09-.22.13-.45.12-.68Z"/>
      <path class="cls-1" d="M63.64,25.63c0,.07-.01.15-.03.24-.02.1-.05.19-.09.29s-.08.2-.12.29c-.04.09-.08.16-.13.22-.38.52-.81,1.05-1.28,1.59-.47.54-.97,1.08-1.5,1.6-.53.52-1.09,1.02-1.68,1.49-.58.47-1.18.9-1.79,1.29-.33.2-.68.39-1.08.57-.39.18-.8.34-1.22.48-.42.14-.85.25-1.28.33-.43.08-.86.12-1.27.12-.52,0-.98-.09-1.38-.28-.4-.19-.74-.45-1.01-.77-.27-.33-.48-.7-.63-1.14-.14-.43-.22-.89-.22-1.37v-.06c0-.98.21-1.97.63-2.95.42-.98.97-1.95,1.67-2.91.16-.19.34-.4.55-.63s.44-.46.69-.67c.25-.21.5-.38.77-.52.27-.14.53-.21.79-.21.17,0,.33.05.49.14s.31.22.45.38c.14.16.27.34.39.54.12.2.22.41.31.62s.15.42.2.62c.05.2.07.38.07.53,0,.07-.01.19-.04.33-.03.15-.07.3-.13.45-.06.15-.13.28-.22.39-.08.11-.18.17-.28.17-.15,0-.27-.03-.38-.09-.1-.06-.19-.14-.26-.24-.07-.1-.12-.21-.16-.33s-.06-.24-.08-.35c-.06-.4-.14-.73-.26-.99-.11-.26-.23-.39-.35-.39-.14,0-.3.07-.49.2-.19.13-.38.31-.58.53-.2.22-.4.47-.59.75-.2.28-.37.57-.53.85-.15.27-.29.57-.41.9s-.23.68-.32,1.03c-.09.35-.16.7-.21,1.05-.05.35-.08.68-.08.98,0,.21.05.43.16.65.1.22.24.42.41.59.17.18.36.32.57.43s.43.17.65.17c.47,0,.91-.04,1.34-.12s.84-.2,1.24-.36c.4-.16.79-.34,1.18-.56s.77-.46,1.17-.73c.55-.38,1.08-.79,1.58-1.25s.98-.91,1.42-1.35.83-.87,1.19-1.28c.35-.4.65-.75.89-1.03.12-.13.22-.25.3-.35.08-.1.16-.18.23-.24.07-.06.15-.1.22-.13.07-.03.15-.04.24-.04.05,0,.12.06.19.17.07.11.11.22.11.33Z"/>
      <path class="cls-1" d="M70.04,31.31c0,.11-.04.26-.13.43s-.21.37-.37.59c-.16.21-.35.44-.58.67-.23.23-.48.45-.76.66-.16.12-.36.26-.6.42s-.53.32-.85.46c-.32.14-.68.27-1.06.37-.38.1-.8.15-1.24.15-.52,0-.96-.1-1.34-.31-.38-.21-.69-.48-.93-.82-.24-.34-.43-.72-.54-1.14-.12-.43-.18-.86-.18-1.29,0-.53.04-1.09.12-1.68.08-.58.17-1.13.26-1.65.1-.51.19-.96.27-1.34s.12-.62.12-.74c0-.14.01-.3.04-.48.03-.18.07-.34.14-.5s.16-.28.27-.39c.12-.1.26-.16.43-.16.21,0,.38.03.53.08.14.06.26.12.35.21.09.08.16.17.21.26.04.09.07.17.07.24,0,.22-.06.51-.17.87-.12.36-.24.77-.38,1.23-.14.46-.26.96-.38,1.5-.12.54-.17,1.12-.17,1.71,0,.3.02.61.05.94.03.33.1.63.21.9.11.27.26.5.47.68s.49.27.84.27c.29,0,.6-.05.92-.14.31-.09.62-.21.92-.36.3-.14.57-.3.83-.47.26-.17.48-.33.68-.48.19-.16.37-.3.53-.44.16-.14.31-.26.44-.36.13-.1.25-.19.36-.25s.2-.09.28-.09c.17,0,.28.04.32.13.04.09.06.19.06.29ZM66.26,19.01c0,.07-.01.18-.04.32-.03.14-.07.29-.12.46-.05.16-.1.32-.16.48-.06.16-.11.29-.17.41s-.14.21-.26.31c-.12.09-.25.17-.39.24-.14.07-.28.12-.42.16s-.26.06-.34.06c-.07,0-.12-.02-.16-.06s-.06-.08-.08-.14c-.02-.06-.03-.13-.04-.2,0-.07-.01-.14-.02-.21l-.06-.34c-.01-.07-.04-.12-.06-.17-.03-.05-.05-.1-.08-.16s-.06-.13-.08-.22c-.02-.08-.03-.2-.03-.34,0-.12.04-.25.12-.39.08-.14.18-.28.32-.4.13-.12.29-.23.47-.31.18-.08.38-.13.59-.13.05,0,.13.02.25.06.12.04.23.09.34.16s.21.13.29.21c.08.08.13.15.13.23Z"/>
    </g>
  </g>
</svg>